<svg xmlns="http://www.w3.org/2000/svg" viewBox="0 0 385.6 141.8"><defs><style>.cls-1{fill:#58595b;}.cls-2{fill:#2484c6;}</style></defs><title>icniqubemdpi</title><g id="Layer_2" data-name="Layer 2"><g id="Layer_1-2" data-name="Layer 1"><polygon points="1.5 0.2 19.6 0.2 18.3 6 14.2 6 14.5 4.2 12.9 4.2 10 15.1 12.7 15.1 12 18.4 0.8 18.4 1.9 15.1 3.9 15.1 6.6 4 4.7 4 4.2 5.9 0.1 5.9 1.5 0.2"/><polygon points="21.2 0.2 20.2 3.6 21.8 3.6 22.7 18.4 29.8 18.4 41.4 0.2 32.8 0.2 31.7 3.5 33.5 3.5 28.2 12.7 28.2 3.7 29.7 3.7 30.8 0.2 21.2 0.2"/><path d="M42.4,14.6V12.9H38.8L37.4,18s.9.8,7,.8,9-3.9,9-6.6a4.25,4.25,0,0,0-2.8-4.1c-.9-.5-3.2-1.2-3.3-2.5s1.8-1.5,2.3-1.5a8.79,8.79,0,0,1,1.4.2V5.7h3.5s.2-3.6,1.3-5A19.37,19.37,0,0,0,50.2,0C45,0,40.8,2.4,40.8,5.9s2.4,4.4,4.1,5.2,2,1.5,2,2.2-.5,1.5-2.4,1.5c-2.2,0-2.1-.2-2.1-.2Z"/><path class="cls-1" d="M323.5,52.7v3.9h62.1V68.7H323.5v3.9a2.33,2.33,0,0,0,2.6,2.6h59.5V90.7H323.5c-10.4,0-15.5-5.2-15.5-15.5V50.1c0-10.4,5.2-15.5,15.5-15.5h62.1V50.1H326.1a2.33,2.33,0,0,0-2.6,2.6Z"/><path class="cls-1" d="M323.5,52.7v3.9h62.1V68.7H323.5v3.9a2.33,2.33,0,0,0,2.6,2.6h59.5V90.7H323.5c-10.4,0-15.5-5.2-15.5-15.5V50.1c0-10.4,5.2-15.5,15.5-15.5h62.1V50.1H326.1a2.33,2.33,0,0,0-2.6,2.6Z"/><path class="cls-1" d="M280.4,52.7v3.9H218.3V68.7h62.1v3.9a2.33,2.33,0,0,1-2.6,2.6H218.3V90.7h62.1c10.4,0,15.5-5.2,15.5-15.5V50.1c0-10.4-5.2-15.5-15.5-15.5H218.3V50.1h59.5a2.28,2.28,0,0,1,2.6,2.6Z"/><path class="cls-1" d="M280.4,52.7v3.9H218.3V68.7h62.1v3.9a2.33,2.33,0,0,1-2.6,2.6H218.3V90.7h62.1c10.4,0,15.5-5.2,15.5-15.5V50.1c0-10.4-5.2-15.5-15.5-15.5H218.3V50.1h59.5a2.28,2.28,0,0,1,2.6,2.6Z"/><path class="cls-1" d="M207,34.6V75.3c0,10.4-5.2,15.5-15.5,15.5H145c-10.4,0-15.5-5.2-15.5-15.5V34.6H145V70.1c0,3.5,1.7,5.2,5.2,5.2h36.2c3.5,0,5.2-1.7,5.2-5.2V34.6Z"/><path class="cls-1" d="M207,34.6V75.3c0,10.4-5.2,15.5-15.5,15.5H145c-10.4,0-15.5-5.2-15.5-15.5V34.6H145V70.1c0,3.5,1.7,5.2,5.2,5.2h36.2c3.5,0,5.2-1.7,5.2-5.2V34.6Z"/><path class="cls-1" d="M117.7,50.1V75.2c0,10.4-5.2,15.5-15.5,15.5h-8L87.6,75.2H97c3.5,0,5.2-1.7,5.2-5.2V55.3c0-3.5-1.7-5.2-5.2-5.2H49.5c-3.5,0-5.2,1.7-5.2,5.2V70c0,3.5,1.7,5.2,5.2,5.2H79.2l6.6,15.5H44.3c-10.4,0-15.5-5.2-15.5-15.5V50.1c0-10.4,5.2-15.5,15.5-15.5h57.9c10.3,0,15.5,5.2,15.5,15.5Z"/><path class="cls-1" d="M117.7,50.1V75.2c0,10.4-5.2,15.5-15.5,15.5h-8L87.6,75.2H97c3.5,0,5.2-1.7,5.2-5.2V55.3c0-3.5-1.7-5.2-5.2-5.2H49.5c-3.5,0-5.2,1.7-5.2,5.2V70c0,3.5,1.7,5.2,5.2,5.2H79.2l6.6,15.5H44.3c-10.4,0-15.5-5.2-15.5-15.5V50.1c0-10.4,5.2-15.5,15.5-15.5h57.9c10.3,0,15.5,5.2,15.5,15.5Z"/><path class="cls-1" d="M15.6,55.4H7.8V51.2h7.8V39.7c0-3.5-1.7-5.2-5.2-5.2H5.2C1.8,34.5,0,36.2,0,39.7V85.5c0,3.5,1.7,5.2,5.2,5.2h5.2c3.5,0,5.2-1.7,5.2-5.2V55.4Z"/><path class="cls-2" d="M117.4,117.9v2.5h38V128h-38v2.5a1.39,1.39,0,0,0,1.6,1.6h36.4v9.7h-38c-6.3,0-9.5-3.2-9.5-9.7V116.4c0-6.5,3.2-9.7,9.5-9.7h38v9.7H119c-1.1-.1-1.6.4-1.6,1.5Z"/><path class="cls-2" d="M161.6,124.2v-7.9c0-6.5,3.2-9.7,9.5-9.7h38v9.7H172.7a1.39,1.39,0,0,0-1.6,1.6v12.6a1.39,1.39,0,0,0,1.6,1.6h36.4v9.7h-38c-6.3,0-9.5-3.2-9.5-9.7v-7.9Z"/><path class="cls-2" d="M338.1,124.2v-7.9c0-6.5,3.2-9.7,9.5-9.7h38v9.7H349.2a1.39,1.39,0,0,0-1.6,1.6v12.6a1.39,1.39,0,0,0,1.6,1.6h36.4v9.7h-38c-6.3,0-9.5-3.2-9.5-9.7v-7.9Z"/><path class="cls-2" d="M9.6,117.9v2.5h38V128H9.6v2.5a1.39,1.39,0,0,0,1.6,1.6H47.6v9.7H9.6c-6.3,0-9.5-3.2-9.5-9.7V116.4c0-6.5,3.2-9.7,9.5-9.7h38v9.7H11.2c-1.1-.1-1.6.4-1.6,1.5Z"/><path class="cls-2" d="M307,118v.8a1.58,1.58,0,0,1-1.6,1.6H269v21.3h9.5v-13h19.4l9.2,13h9.5l-9.1-13a9.24,9.24,0,0,0,9.1-9.3v-3c0-6.4-3.2-9.7-9.5-9.7h-38v9.7h36.4A1.5,1.5,0,0,1,307,118Z"/><polygon class="cls-2" points="332 119.7 332 128.5 332 141.6 322.5 141.6 322.5 106.7 332 106.7 332 119.7"/><path class="cls-2" d="M53.7,106.6v26.8a8.28,8.28,0,0,0,8.3,8.3h39.7V132H68.3s-4.9,0-4.9-4.4V106.5H53.7Z"/><polygon class="cls-2" points="215.2 106.6 215.2 116.1 234.3 116.1 234.3 141.7 244.2 141.7 244.2 116.4 263 116.4 263 106.6 215.2 106.6"/></g></g></svg>