<svg xmlns="http://www.w3.org/2000/svg" width="91.471" height="33.637" viewBox="0 0 91.471 33.637">
  <g id="iQube-branding-1_-_black" data-name="iQube-branding-1 - black" transform="translate(581.1 172.4)">
    <path id="Path_135" data-name="Path 135" d="M-580.668-172.2h4.294l-.308,1.376h-.973l.071-.427h-.38l-.688,2.586h.64l-.166.783h-2.657l.261-.783h.474l.641-2.633h-.451l-.119.451H-581Z" transform="translate(-0.076 -0.153)" fill-rule="evenodd"/>
    <path id="Path_136" data-name="Path 136" d="M-560.663-172.2l-.237.807h.38l.214,3.511h1.684l2.752-4.317h-2.04l-.261.783h.427L-559-169.235v-2.135h.356l.261-.83Z" transform="translate(-15.408 -0.153)" fill-rule="evenodd"/>
    <path id="Path_137" data-name="Path 137" d="M-542.514-168.937v-.4h-.854l-.332,1.21s.214.19,1.661.19,2.135-.925,2.135-1.566a1.008,1.008,0,0,0-.664-.973c-.214-.119-.759-.285-.783-.593-.024-.332.427-.356.546-.356a2.086,2.086,0,0,1,.332.047v.332h.83a2.832,2.832,0,0,1,.308-1.186,4.6,4.6,0,0,0-1.328-.166c-1.234,0-2.23.569-2.23,1.4,0,.854.569,1.044.973,1.234.38.213.474.356.474.522s-.119.356-.569.356c-.522,0-.5-.047-.5-.047Z" transform="translate(-28.528 0)" fill-rule="evenodd"/>
    <path id="Path_138" data-name="Path 138" d="M-269.423-133.506v.925h14.731v2.87h-14.731v.925a.552.552,0,0,0,.617.617h14.114v3.677h-14.731c-2.467,0-3.677-1.234-3.677-3.677v-5.954c0-2.467,1.234-3.677,3.677-3.677h14.731v3.677h-14.114a.552.552,0,0,0-.617.617Z" transform="translate(-234.937 -26.392)" fill-rule="evenodd"/>
    <path id="Path_139" data-name="Path 139" d="M-269.423-133.506v.925h14.731v2.87h-14.731v.925a.552.552,0,0,0,.617.617h14.114v3.677h-14.731c-2.467,0-3.677-1.234-3.677-3.677v-5.954c0-2.467,1.234-3.677,3.677-3.677h14.731v3.677h-14.114a.552.552,0,0,0-.617.617Z" transform="translate(-234.937 -26.392)" fill-rule="evenodd"/>
    <path id="Path_140" data-name="Path 140" d="M-348.069-133.506v.925H-362.8v2.87h14.731v.925a.552.552,0,0,1-.617.617H-362.8v3.677h14.731c2.467,0,3.677-1.234,3.677-3.677v-5.954c0-2.467-1.234-3.677-3.677-3.677H-362.8v3.677h14.114a.542.542,0,0,1,.617.617Z" transform="translate(-166.516 -26.392)" fill-rule="evenodd"/>
    <path id="Path_141" data-name="Path 141" d="M-348.069-133.506v.925H-362.8v2.87h14.731v.925a.552.552,0,0,1-.617.617H-362.8v3.677h14.731c2.467,0,3.677-1.234,3.677-3.677v-5.954c0-2.467-1.234-3.677-3.677-3.677H-362.8v3.677h14.114a.542.542,0,0,1,.617.617Z" transform="translate(-166.516 -26.392)" fill-rule="evenodd"/>
    <path id="Path_142" data-name="Path 142" d="M-433.216-137.8v9.655c0,2.467-1.234,3.677-3.677,3.677h-11.031c-2.467,0-3.677-1.234-3.677-3.677V-137.8h3.677v8.421a1.084,1.084,0,0,0,1.234,1.234h8.587a1.084,1.084,0,0,0,1.234-1.234V-137.8Z" transform="translate(-98.78 -26.392)" fill-rule="evenodd"/>
    <path id="Path_143" data-name="Path 143" d="M-433.216-137.8v9.655c0,2.467-1.234,3.677-3.677,3.677h-11.031c-2.467,0-3.677-1.234-3.677-3.677V-137.8h3.677v8.421a1.084,1.084,0,0,0,1.234,1.234h8.587a1.084,1.084,0,0,0,1.234-1.234V-137.8Z" transform="translate(-98.78 -26.392)" fill-rule="evenodd"/>
    <path id="Path_144" data-name="Path 144" d="M-531.211-134.123v5.954c0,2.467-1.234,3.677-3.677,3.677h-1.9l-1.566-3.677h2.23a1.084,1.084,0,0,0,1.234-1.234v-3.487a1.084,1.084,0,0,0-1.234-1.234H-547.39a1.084,1.084,0,0,0-1.234,1.234v3.487a1.084,1.084,0,0,0,1.234,1.234h7.045l1.566,3.677h-9.844c-2.467,0-3.677-1.234-3.677-3.677v-5.954c0-2.467,1.234-3.677,3.677-3.677h13.735c2.443,0,3.677,1.234,3.677,3.677Z" transform="translate(-21.968 -26.392)" fill-rule="evenodd"/>
    <path id="Path_146" data-name="Path 146" d="M-577.4-132.942h-1.85v-1h1.85v-2.728a1.084,1.084,0,0,0-1.234-1.234h-1.234a1.093,1.093,0,0,0-1.234,1.234V-125.8a1.084,1.084,0,0,0,1.234,1.234h1.234A1.084,1.084,0,0,0-577.4-125.8v-7.14Z" transform="translate(0 -26.316)" fill-rule="evenodd"/>
    <path id="Path_147" data-name="Path 147" d="M-470.946-63.043v.593h9.014v1.8h-9.014v.593a.329.329,0,0,0,.38.38h8.635v2.3h-9.014a2.013,2.013,0,0,1-2.254-2.3V-63.4a2.013,2.013,0,0,1,2.254-2.3h9.014v2.3h-8.635c-.261-.024-.38.095-.38.356Z" transform="translate(-82.304 -81.389)" fill-rule="evenodd"/>
    <path id="Path_148" data-name="Path 148" d="M-419.5-61.625V-63.5a2.013,2.013,0,0,1,2.254-2.3h9.014v2.3h-8.635a.329.329,0,0,0-.38.38v2.989a.329.329,0,0,0,.38.38h8.635v2.3h-9.014a2.013,2.013,0,0,1-2.254-2.3v-1.874Z" transform="translate(-123.266 -81.313)" fill-rule="evenodd"/>
    <path id="Path_149" data-name="Path 149" d="M-243-61.625V-63.5a2.013,2.013,0,0,1,2.254-2.3h9.014v2.3h-8.635a.329.329,0,0,0-.38.38v2.989a.329.329,0,0,0,.38.38h8.635v2.3h-9.014a2.013,2.013,0,0,1-2.254-2.3v-1.874Z" transform="translate(-257.897 -81.313)" fill-rule="evenodd"/>
    <path id="Path_150" data-name="Path 150" d="M-578.746-63.043v.593h9.014v1.8h-9.014v.593a.329.329,0,0,0,.38.38h8.635v2.3h-9.014a2.013,2.013,0,0,1-2.254-2.3V-63.4a2.013,2.013,0,0,1,2.254-2.3h9.014v2.3h-8.635c-.261-.024-.38.095-.38.356Z" transform="translate(-0.076 -81.389)" fill-rule="evenodd"/>
    <path id="Path_151" data-name="Path 151" d="M-303.086-63.019v.19a.375.375,0,0,1-.38.38H-312.1V-57.4h2.254v-3.084h4.6l2.182,3.084h2.254l-2.159-3.084a2.192,2.192,0,0,0,2.159-2.206V-63.4a2.023,2.023,0,0,0-2.254-2.3h-9.014v2.3h8.635a.356.356,0,0,1,.356.38Z" transform="translate(-205.189 -81.389)" fill-rule="evenodd"/>
    <path id="Path_152" data-name="Path 152" d="M-256.346-62.616v5.2H-258.6V-65.7h2.254Z" transform="translate(-245.998 -81.389)" fill-rule="evenodd"/>
    <path id="Path_153" data-name="Path 153" d="M-527.4-65.876v6.357a1.964,1.964,0,0,0,1.969,1.969h9.417v-2.3h-7.923s-1.162,0-1.162-1.044V-65.9h-2.3Z" transform="translate(-40.961 -81.236)" fill-rule="evenodd"/>
    <path id="Path_154" data-name="Path 154" d="M-365.9-65.8v2.254h4.531v6.073h2.348v-6h4.46V-65.8Z" transform="translate(-164.151 -81.313)" fill-rule="evenodd"/>
  </g>
</svg>
